<svg id="visual" viewBox="0 0 900 600" width="900" height="600" xmlns="http://www.w3.org/2000/svg" xmlns:xlink="http://www.w3.org/1999/xlink" version="1.1"><rect x="0" y="0" width="900" height="600" fill="#000000"></rect><defs><linearGradient id="grad1_0" x1="33.3%" y1="0%" x2="100%" y2="100%"><stop offset="20%" stop-color="#000000" stop-opacity="1"></stop><stop offset="80%" stop-color="#000000" stop-opacity="1"></stop></linearGradient></defs><defs><linearGradient id="grad2_0" x1="0%" y1="0%" x2="66.7%" y2="100%"><stop offset="20%" stop-color="#000000" stop-opacity="1"></stop><stop offset="80%" stop-color="#000000" stop-opacity="1"></stop></linearGradient></defs><g transform="translate(900, 0)"><path d="M0 486.7C-52.9 453.7 -105.8 420.7 -166.5 401.9C-227.1 383.1 -295.4 378.5 -344.2 344.2C-392.9 309.8 -422 245.6 -442.5 183.3C-463 121 -474.9 60.5 -486.7 0L0 0Z" fill="#715DF2"></path></g><g transform="translate(0, 600)"><path d="M0 -486.7C56.1 -463.7 112.3 -440.6 174.5 -421.3C236.7 -402 305.1 -386.6 344.2 -344.2C383.3 -301.8 393.2 -232.5 412.1 -170.7C430.9 -108.8 458.8 -54.4 486.7 0L0 0Z" fill="#715DF2"></path></g></svg>