<svg id="visual" viewBox="0 0 900 600" width="900" height="600" xmlns="http://www.w3.org/2000/svg" xmlns:xlink="http://www.w3.org/1999/xlink" version="1.1"><rect x="0" y="0" width="900" height="600" fill="#000000"></rect><defs><linearGradient id="grad1_0" x1="33.3%" y1="0%" x2="100%" y2="100%"><stop offset="20%" stop-color="#000000" stop-opacity="1"></stop><stop offset="80%" stop-color="#000000" stop-opacity="1"></stop></linearGradient></defs><defs><linearGradient id="grad2_0" x1="0%" y1="0%" x2="66.7%" y2="100%"><stop offset="20%" stop-color="#000000" stop-opacity="1"></stop><stop offset="80%" stop-color="#000000" stop-opacity="1"></stop></linearGradient></defs><g transform="translate(900, 0)"><path d="M0 486.7C-28.8 405.6 -57.6 324.4 -130.9 316C-204.1 307.5 -321.9 371.7 -344.2 344.2C-366.5 316.7 -293.3 197.4 -301.2 124.8C-309 52.1 -397.9 26.1 -486.7 0L0 0Z" fill="#715DF2"></path></g><g transform="translate(0, 600)"><path d="M0 -486.7C61.7 -480.3 123.4 -473.9 186.3 -449.7C249.1 -425.5 313.1 -383.4 323.1 -323.1C333.2 -262.9 289.4 -184.3 307.7 -127.4C325.9 -70.5 406.3 -35.3 486.7 0L0 0Z" fill="#715DF2"></path></g></svg>