<svg id="visual" viewBox="0 0 960 300" width="960" height="300" xmlns="http://www.w3.org/2000/svg" xmlns:xlink="http://www.w3.org/1999/xlink" version="1.1"><path d="M0 178L137 216L274 176L411 210L549 195L686 213L823 219L960 202L960 301L823 301L686 301L549 301L411 301L274 301L137 301L0 301Z" fill="#0066ff"></path><path d="M0 198L137 214L274 230L411 233L549 225L686 217L823 207L960 222L960 301L823 301L686 301L549 301L411 301L274 301L137 301L0 301Z" fill="#ba4dd6"></path><path d="M0 230L137 253L274 238L411 236L549 225L686 250L823 224L960 241L960 301L823 301L686 301L549 301L411 301L274 301L137 301L0 301Z" fill="#ee45a3"></path><path d="M0 266L137 269L274 261L411 248L549 267L686 254L823 256L960 246L960 301L823 301L686 301L549 301L411 301L274 301L137 301L0 301Z" fill="#fc5f77"></path><path d="M0 266L137 277L274 286L411 274L549 279L686 263L823 285L960 281L960 301L823 301L686 301L549 301L411 301L274 301L137 301L0 301Z" fill="#f2835c"></path></svg>